<svg xmlns="http://www.w3.org/2000/svg" viewBox="0 0 139.38 89.08"><defs><style>.cls-1{fill:#003d6c;}.cls-2{fill:#2fcd82;}</style></defs><g id="图层_2" data-name="图层 2"><g id="图层_1-2" data-name="图层 1"><path class="cls-1" d="M0,72.69H0c2.36,10,10.9,16.38,21.77,16.38,10.27,0,21.09-6,27.65-15.18A116.5,116.5,0,0,1,63.65,62.37,112.63,112.63,0,0,1,94.39,47.25l21,38h13.65L106.45,44.58c13.75-1.85,24.82,1.09,32.93,8.77h0c-8.28-11-19.4-19.45-36.52-17.25a19.59,19.59,0,0,0-2.38.46c-7,1.78-40.07,12.11-51.06,37.34,0,0,7.11-9.62,5.61-21.73a21.33,21.33,0,0,0-4.56-10.11L48.7,40l-8,6.81,1.73,2.06c2.08,2.73,2.94,7.67,2.16,11.91-2,10.59-13.85,20.19-23.28,20.36C15,81.2,4.21,78.79,0,72.7"/><polygon class="cls-1" points="26.56 51.13 27.04 51.55 68.46 11.43 19.09 12.25 17.2 22.93 45.75 22.29 26.56 51.13"/><path class="cls-2" d="M59.61,52.35A72.53,72.53,0,0,1,75.68,40.42l6.88-17,6,11a109,109,0,0,1,11.38-3.66l.13,0L82.31,0,56.83,55.05A32.7,32.7,0,0,1,59.61,52.35Z"/></g></g></svg>